<svg xmlns="http://www.w3.org/2000/svg" width="512" height="512" fill="none" viewBox="0 0 512 512"><path d="M-32.966-49.899h621.187v740.917H-32.966z" style="fill:#f7c2ff;fill-opacity:1;stroke-width:1.88976"/><g fill="#000" style="stroke-width:1.0743"><path d="m235.588-31.44 95.04 95.031a28.86 28.86 0 0 1 0 40.817l-56.554 56.553-38.486-38.48c-42.498-42.497-42.498-111.417 0-153.922" style="stroke-width:1.0743" transform="translate(36.7 70.347)scale(.93084)"/><path fill-rule="evenodd" d="M235.595 430.335 81.665 276.412c-42.498-42.505-42.498-111.425 0-153.93L215.183 256A28.86 28.86 0 0 0 256 256l133.518-133.518c42.505 42.505 42.505 111.425 0 153.93z" clip-rule="evenodd" style="stroke-width:1.0743" transform="translate(36.7 70.347)scale(.93084)"/></g></svg>